<svg xmlns="http://www.w3.org/2000/svg" width="13.028" height="16" viewBox="0 0 13.028 16"><defs><style>.a{fill:#fff;}</style></defs><path class="a" d="M191.31,72.5a3.62,3.62,0,0,1,1.727-3.046,3.736,3.736,0,0,0-2.926-1.585c-1.246-.126-2.431.734-3.064.734s-1.606-.715-2.64-.7a3.915,3.915,0,0,0-3.31,2.006c-1.411,2.448-.361,6.076,1.014,8.061.672.972,1.473,2.064,2.525,2.025,1.013-.041,1.4-.656,2.621-.656s1.569.656,2.641.635c1.09-.02,1.781-.991,2.448-1.966a8.813,8.813,0,0,0,1.108-2.275A3.534,3.534,0,0,1,191.31,72.5ZM189.3,66.555A3.526,3.526,0,0,0,190.128,64a3.586,3.586,0,0,0-2.356,1.212,3.353,3.353,0,0,0-.85,2.476A2.967,2.967,0,0,0,189.3,66.555Z" transform="translate(-180.429 -64)"/></svg>